<svg xmlns="http://www.w3.org/2000/svg" version="1.1" xmlns:xlink="http://www.w3.org/1999/xlink" xmlns:svgjs="http://svgjs.dev/svgjs" width="1500" height="1500" viewBox="0 0 1500 1500"><rect width="1500" height="1500" fill="#ffffff"></rect><g transform="matrix(0.6666666666666666,0,0,0.6666666666666666,249.39393939393938,648.2719412553782)"><svg viewBox="0 0 396 81" data-background-color="#ffffff" preserveAspectRatio="xMidYMid meet" height="306" width="1500" xmlns="http://www.w3.org/2000/svg" xmlns:xlink="http://www.w3.org/1999/xlink"><g id="tight-bounds" transform="matrix(1,0,0,1,0.2400000000000091,-0.10797667492960272)"><svg viewBox="0 0 395.52 81.2159533498592" height="81.2159533498592" width="395.52"><g><svg viewBox="0 0 520.7062238678789 106.9216534856265" height="81.2159533498592" width="395.52"><g transform="matrix(1,0,0,1,125.18622386787887,14.777160503440427)"><svg viewBox="0 0 395.52 77.36733247874565" height="77.36733247874565" width="395.52"><g id="textblocktransform"><svg viewBox="0 0 395.52 77.36733247874565" height="77.36733247874565" width="395.52" id="textblock"><g><svg viewBox="0 0 395.52 77.36733247874565" height="77.36733247874565" width="395.52"><g transform="matrix(1,0,0,1,0,0)"><svg width="395.52" viewBox="3 -35.4 183.00801996197717 35.800000000000004" height="77.36733247874565" data-palette-color="#219882"><g transform="matrix(1,0,0,1,0,0)"><g><svg width="17.312013307984788" viewBox="3.16 -36.86 83.04 37.36" height="7.787999999999999" data-palette-color="#219882" id="scriptelement" x="168.69600665399238" y="-7.787999999999999"><path d="M3.16-36.36L10.85-36.36 10.85 0 3.16 0 3.16-36.36ZM39.95-36.36L47.6-36.36 47.6 0 40.96 0 25.14-22.89 24.87-22.89 24.87 0 17.19 0 17.19-36.36 23.93-36.36 39.63-13.49 39.95-13.49 39.95-36.36ZM85.86-24.61L78.05-24.61Q77.68-25.91 77-26.91 76.33-27.91 75.36-28.61 74.39-29.31 73.16-29.69 71.92-30.06 70.43-30.06L70.43-30.06Q67.64-30.06 65.54-28.68 63.44-27.29 62.26-24.65 61.09-22.02 61.09-18.22L61.09-18.22Q61.09-14.42 62.25-11.75 63.4-9.09 65.51-7.7 67.63-6.3 70.5-6.3L70.5-6.3Q73.11-6.3 74.97-7.24 76.82-8.17 77.81-9.87 78.79-11.58 78.79-13.9L78.79-13.9 80.36-13.67 70.98-13.67 70.98-19.46 86.2-19.46 86.2-14.88Q86.2-10.09 84.17-6.65 82.15-3.21 78.6-1.36 75.05 0.5 70.47 0.5L70.47 0.5Q65.35 0.5 61.48-1.77 57.61-4.03 55.45-8.21 53.3-12.39 53.3-18.15L53.3-18.15Q53.3-22.57 54.58-26.04 55.87-29.51 58.2-31.92 60.52-34.34 63.61-35.6 66.7-36.86 70.31-36.86L70.31-36.86Q73.4-36.86 76.06-35.96 78.72-35.07 80.79-33.43 82.86-31.8 84.17-29.55 85.49-27.31 85.86-24.61L85.86-24.61Z" opacity="1" transform="matrix(1,0,0,1,0,0)" fill="#219882" class="undefined-123" data-fill-palette-color="primary" id="yy-123"></path></svg></g></g><g class="wordmark-text-0" data-fill-palette-color="primary" id="text-0"><path d="M14.35 0.4Q11 0.4 8.43-1.2 5.85-2.8 4.42-5.68 3-8.55 3-12.3L3-12.3 3-22.7Q3-26.45 4.42-29.35 5.85-32.25 8.47-33.83 11.1-35.4 14.55-35.4L14.55-35.4 19.85-35.4Q23.1-35.4 25.58-34 28.05-32.6 29.43-30.05 30.8-27.5 30.8-24.2L30.8-24.2 27.2-24.2Q27.2-27.75 25.18-29.93 23.15-32.1 19.85-32.1L19.85-32.1 14.55-32.1Q11-32.1 8.85-29.53 6.7-26.95 6.7-22.7L6.7-22.7 6.7-12.3Q6.7-8.05 8.8-5.48 10.9-2.9 14.35-2.9L14.35-2.9 19.75-2.9Q23.15-2.9 25.23-5.3 27.3-7.7 27.3-11.6L27.3-11.6 30.9-11.6Q30.9-8.05 29.5-5.33 28.1-2.6 25.58-1.1 23.05 0.4 19.75 0.4L19.75 0.4 14.35 0.4ZM47.7 0.4Q44.25 0.4 41.6-1.15 38.95-2.7 37.47-5.55 36-8.4 36-12.15L36-12.15 36-22.85Q36-26.6 37.47-29.45 38.95-32.3 41.6-33.85 44.25-35.4 47.75-35.4L47.75-35.4 53.05-35.4Q56.55-35.4 59.2-33.85 61.85-32.3 63.32-29.45 64.8-26.6 64.8-22.85L64.8-22.85 64.8-12.15Q64.8-8.4 63.32-5.58 61.85-2.75 59.17-1.18 56.5 0.4 53.05 0.4L53.05 0.4 47.7 0.4ZM47.8-2.9L52.95-2.9Q56.6-2.9 58.85-5.45 61.1-8 61.1-12.15L61.1-12.15 61.1-22.85Q61.1-27 58.85-29.55 56.6-32.1 52.95-32.1L52.95-32.1 47.85-32.1Q44.2-32.1 41.95-29.55 39.7-27 39.7-22.85L39.7-22.85 39.7-12.15Q39.7-8 41.92-5.45 44.15-2.9 47.8-2.9L47.8-2.9ZM71.8 0L71.8-35 88.8-35Q92.65-35 94.97-32.83 97.3-30.65 97.3-27.1L97.3-27.1 97.3-23.45Q97.3-20.8 95.6-18.78 93.9-16.75 91.05-15.9L91.05-15.9 91.05-15.85Q92.55-15.05 93.77-13.3 95-11.55 95.65-9.35L95.65-9.35 98.4 0 94.6 0 91.85-9.35Q91.15-11.8 89.42-13.3 87.7-14.8 85.65-14.8L85.65-14.8 75.5-14.8 75.5 0 71.8 0ZM75.5-18.1L87.5-18.1Q90.25-18.1 91.92-19.58 93.6-21.05 93.6-23.45L93.6-23.45 93.6-27.3Q93.6-29.3 92.25-30.5 90.9-31.7 88.7-31.7L88.7-31.7 75.5-31.7 75.5-18.1ZM107.54 0Q105.99 0 105.14-0.88 104.29-1.75 104.29-3.3L104.29-3.3 104.29-35 127.79-35 127.79-31.8 107.99-31.8 107.99-19.5 126.29-19.5 126.29-16.3 107.99-16.3 107.99-3.2 127.79-3.2 127.79 0 107.54 0ZM131.09 0L143.49-17.85 131.59-35 135.74-35 145.59-20.9 155.44-35 159.54-35 147.64-17.85 160.04 0 155.89 0 145.59-14.85 135.24 0 131.09 0Z" fill="#219882" data-fill-palette-color="primary"></path></g></svg></g></svg></g></svg></g></svg></g><g><svg viewBox="0 0 106.9216534856265 106.9216534856265" height="106.9216534856265" width="106.9216534856265"><g><svg xmlns="http://www.w3.org/2000/svg" xmlns:xlink="http://www.w3.org/1999/xlink" version="1.1" x="0" y="0" viewBox="2 2 96 96" style="enable-background:new 0 0 100 100;" xml:space="preserve" height="106.9216534856265" width="106.9216534856265" class="icon-icon-0" data-fill-palette-color="accent" id="icon-0"><path d="M50 71c11.579 0 21-9.42 21-21s-9.421-21-21-21-21 9.42-21 21S38.421 71 50 71zM50 33c9.374 0 17 7.626 17 17s-7.626 17-17 17-17-7.626-17-17S40.626 33 50 33z" fill="#d7c748" data-fill-palette-color="accent"></path><path d="M13.391 78.332c0.178 0.019 0.354 0.028 0.53 0.028 1.319 0 2.581-0.519 3.525-1.463l4.355-4.354v0c1.623-1.623 1.926-4.138 0.737-6.117C19.569 61.474 18 55.794 18 50s1.569-11.474 4.539-16.423c1.188-1.98 0.886-4.496-0.737-6.119l-4.355-4.354c-1.07-1.071-2.542-1.599-4.056-1.436-1.516 0.16-2.861 0.986-3.692 2.268C4.662 31.704 2 40.716 2 50s2.662 18.296 7.698 26.064C10.529 77.345 11.875 78.172 13.391 78.332zM13.054 26.113c0.234-0.361 0.574-0.447 0.757-0.467 0.03-0.003 0.066-0.005 0.106-0.005 0.188 0 0.46 0.051 0.701 0.292l4.355 4.354c0.321 0.322 0.378 0.828 0.136 1.231C15.767 37.09 14 43.481 14 50s1.767 12.91 5.109 18.483c0.242 0.402 0.186 0.908-0.136 1.23l-4.355 4.354c-0.293 0.292-0.637 0.302-0.808 0.286-0.183-0.02-0.522-0.105-0.757-0.466C8.439 66.77 6 58.509 6 50S8.439 33.23 13.054 26.113z" fill="#d7c748" data-fill-palette-color="accent"></path><path d="M86.609 21.668c-1.511-0.165-2.985 0.364-4.056 1.435l-4.355 4.355c-1.623 1.623-1.926 4.138-0.737 6.117C80.431 38.526 82 44.206 82 50s-1.569 11.474-4.539 16.423c-1.188 1.98-0.886 4.496 0.737 6.119l4.355 4.354c0.944 0.945 2.206 1.464 3.525 1.464 0.176 0 0.353-0.009 0.53-0.028 1.516-0.16 2.861-0.986 3.692-2.268C95.338 68.296 98 59.284 98 50s-2.662-18.296-7.698-26.064C89.471 22.655 88.125 21.828 86.609 21.668zM86.946 73.887c-0.234 0.361-0.574 0.447-0.757 0.467-0.173 0.015-0.515 0.006-0.808-0.287l-4.355-4.354c-0.321-0.322-0.378-0.828-0.136-1.231C84.233 62.91 86 56.519 86 50s-1.767-12.91-5.109-18.483c-0.242-0.402-0.186-0.908 0.136-1.23l4.355-4.354v0c0.241-0.241 0.514-0.292 0.701-0.292 0.04 0 0.076 0.002 0.106 0.005 0.183 0.02 0.522 0.105 0.757 0.466C91.561 33.23 94 41.491 94 50S91.561 66.77 86.946 73.887z" fill="#d7c748" data-fill-palette-color="accent"></path><path d="M78.332 13.39c-0.16-1.516-0.987-2.861-2.269-3.692C68.296 4.662 59.283 2 50 2S31.704 4.662 23.937 9.698c-1.281 0.831-2.108 2.176-2.269 3.692-0.159 1.507 0.364 2.985 1.436 4.057l4.355 4.355c1.62 1.621 4.136 1.926 6.116 0.738C38.527 19.57 44.207 18 50 18s11.473 1.57 16.425 4.54c0.808 0.484 1.703 0.72 2.592 0.72 1.291 0 2.564-0.498 3.524-1.458l4.355-4.355C77.968 16.375 78.491 14.896 78.332 13.39zM74.068 14.619l-4.355 4.355c-0.323 0.321-0.828 0.378-1.231 0.136C62.909 15.767 56.518 14 50 14s-12.909 1.767-18.481 5.109c-0.403 0.243-0.908 0.186-1.231-0.136l-4.355-4.355c-0.292-0.292-0.305-0.632-0.285-0.809 0.019-0.182 0.104-0.522 0.466-0.756C33.23 8.439 41.49 6 50 6s16.77 2.439 23.888 7.054c0.361 0.234 0.447 0.574 0.466 0.756C74.373 13.986 74.36 14.326 74.068 14.619z" fill="#d7c748" data-fill-palette-color="accent"></path><path d="M23.104 82.553c-1.071 1.072-1.595 2.55-1.436 4.057 0.16 1.516 0.987 2.861 2.269 3.692C31.704 95.338 40.717 98 50 98s18.296-2.662 26.063-7.698c1.281-0.831 2.108-2.176 2.269-3.692 0.159-1.507-0.364-2.985-1.436-4.057l-4.355-4.355c-1.62-1.621-4.137-1.926-6.116-0.738C61.473 80.43 55.793 82 50 82s-11.473-1.57-16.425-4.54c-1.981-1.187-4.496-0.884-6.116 0.738L23.104 82.553zM30.983 80.741c0.183 0 0.367 0.049 0.535 0.149C37.091 84.233 43.482 86 50 86s12.909-1.767 18.481-5.109c0.405-0.242 0.909-0.185 1.231 0.136l4.355 4.355c0.292 0.292 0.305 0.632 0.285 0.809-0.019 0.182-0.104 0.522-0.466 0.756C66.77 91.561 58.51 94 50 94s-16.77-2.439-23.888-7.054c-0.361-0.234-0.447-0.574-0.466-0.756-0.02-0.176-0.007-0.516 0.285-0.809l4.355-4.355C30.476 80.838 30.727 80.741 30.983 80.741z" fill="#d7c748" data-fill-palette-color="accent"></path></svg></g></svg></g></svg></g><defs></defs></svg><rect width="395.52" height="81.2159533498592" fill="none" stroke="none" visibility="hidden"></rect></g></svg></g></svg>